# xmcd
#
# Track frame offsets:
# 150
# 14456
# 32353
# 45203
# 65423
# 80443
# 91148
# 104540
# 116542
# 133593
# 149095
# 164447
# 180465
# 196265
# 206237
# 222556
#
# Disc length: 3206 seconds
#
#
# Revision: 2
# Processed by: cddbd v1.5.2PL0 Copyright (c) Steve Scherf et al.
# Submitted via: FreeRIP 2.96 
#
DISCID=e10c8410
DTITLE=James Taylor - The Best Of James Taylor
DYEAR=2003
DGENRE=Pop
TTITLE0=Something In The Way She Moves
TTITLE1=Carolina On My mind
TTITLE2=Sweet Baby James
TTITLE3=You've Got A friend
TTITLE4=I Was A Fool To Care
TTITLE5=Long Ago And Far Away
TTITLE6=Mexico
TTITLE7=Don't Let Me Be Lonely Tonight
TTITLE8=Hey Mister, That's Me Up On The Jukebox
TTITLE9=Fire And Rain
TTITLE10=Country Road
TTITLE11=Walking Man
TTITLE12=A Junkie's Lament
TTITLE13=Blossom
TTITLE14=How Sweet It Is (To Be Loved By You)
TTITLE15=Shower The People
EXTD=
EXTT0=
EXTT1=
EXTT2=
EXTT3=
EXTT4=
EXTT5=
EXTT6=
EXTT7=
EXTT8=
EXTT9=
EXTT10=
EXTT11=
EXTT12=
EXTT13=
EXTT14=
EXTT15=
PLAYORDER=
